PathFileType	4	(X/Y/Z)	RAnkleTrial14.trc
DataRate	CameraRate	NumFrames	NumMarkers	Units	OrigDataRate	OrigDataStartFrame	OrigNumFrames
50	100	5	33	m	100	117	       951
Frame#	Time	L_Toe			R_Toe			R_Shoulder			L_Heel			Neck			R_Heel			L_Shank_Lateral			R_Shank_Lateral			L_Midfoot_Superior			L_Elbow			R_Midfoot_Lateral			R_Midfoot_Superior			L_Shoulder			R_Thigh_Lateral			R_Elbow			Sacral			L_Thigh_Superior			R_Patella			R_Wrist			R_Shank_Superior			L_Wrist			R_Shank_Inferior			R_Thigh_Superior			R_Thigh_Inferior			L_Asis			L_Shank_Inferior			L_Midfoot_Lateral			Sternum			L_Shank_Superior			R_Asis			L_Patella			L_Thigh_Lateral			L_Thigh_Inferior			
		X1	Y1	Z1	X2	Y2	Z2	X3	Y3	Z3	X4	Y4	Z4	X5	Y5	Z5	X6	Y6	Z6	X7	Y7	Z7	X8	Y8	Z8	X9	Y9	Z9	X10	Y10	Z10	X11	Y11	Z11	X12	Y12	Z12	X13	Y13	Z13	X14	Y14	Z14	X15	Y15	Z15	X16	Y16	Z16	X17	Y17	Z17	X18	Y18	Z18	X19	Y19	Z19	X20	Y20	Z20	X21	Y21	Z21	X22	Y22	Z22	X23	Y23	Z23	X24	Y24	Z24	X25	Y25	Z25	X26	Y26	Z26	X27	Y27	Z27	X28	Y28	Z28	X29	Y29	Z29	X30	Y30	Z30	X31	Y31	Z31	X32	Y32	Z32	X33	Y33	Z33

117	   2.320	    0.70618534267064	    0.04161937629878	    0.37681506967266	    1.11083724224456	    0.27824090120563	    0.51411902363604	    0.46364419927432	    1.44007993381489	    0.51321499646831	    0.41528936171241	    0.03340891211779	    0.42709428023404	    0.42853543173764	    1.46338609542291	    0.36643432661197	    0.90701931680709	    0.11431048025741	    0.65531500279533	    0.48563752865590	    0.32576893395770	    0.29294498179196	    0.79562184196154	    0.44214471336911	    0.67172785270688	    0.58679008529711	    0.08994796519131	    0.39032111152203	    0.36819228640495	    1.11579158892837	    0.10009192471003	    1.00185573871975	    0.15895705854279	    0.65736948044698	    1.00398772059445	    0.25141951458110	    0.58851235766809	    0.47220224820526	    1.43213895025939	    0.22113110427199	    0.66762706029803	    0.73141350845185	    0.62001031324669	    0.56759926672751	    1.13449538708809	    0.64821798236815	    0.42707503553158	    0.96935217480821	    0.37924196693744	    0.67216860698915	    0.73596692305336	    0.29555848672051	    0.80957001355373	    0.60983023166951	    0.56382036944948	    0.65152265833064	    1.27190177456934	    0.45641520670107	    0.84254889443072	    0.50644921534370	    0.60014452368892	    0.54113068968632	    1.00718890228238	   -0.05772815245430	    0.90988982697369	    0.34432162719448	    0.61804715273042	    0.71692574270160	    0.80386978308278	    0.54896361771266	    0.76160094002884	    0.70062397057676	    0.55175448465295	    0.62399077515922	    0.96480528717692	    0.26965621123048	    0.55307812164521	    0.22906324652617	    0.36344890108709	    0.49102113037721	    0.02735545186578	    0.35955730654665	    0.57167775969227	    1.37700211008846	    0.37562574133974	    0.58013317298878	    0.38067710426612	    0.33062384066387	    0.57502439137831	    0.99844134774614	    0.52413388510484	    0.62680667421191	    0.48841830425264	    0.34085292141440	    0.57196705224188	    0.65549774808882	    0.25393551522116	    0.65205596358315	    0.60680125805655	    0.31731383619340
118	   2.340	    0.70618807867256	    0.04158945469416	    0.37680140044804	    1.11113890184924	    0.28269911297151	    0.51517455096109	    0.46349566153907	    1.44007323373247	    0.51298251501841	    0.41529874070924	    0.03342484859587	    0.42709425813108	    0.42849084048094	    1.46331013886114	    0.36617654495474	    0.90996643812567	    0.11409793839087	    0.65424127502084	    0.48579618007110	    0.32581014170104	    0.29306708654426	    0.79664166928248	    0.44237678934769	    0.67141199244432	    0.58680898794064	    0.08995103902918	    0.39032343274940	    0.36857757890640	    1.11554492061595	    0.09999668700783	    1.00384050281015	    0.16060641636824	    0.65712767451427	    1.00465329240411	    0.25327761125888	    0.58850807899565	    0.47227604289723	    1.43204546578595	    0.22090960334761	    0.66830450024122	    0.73161844272323	    0.61994123727725	    0.56757746702997	    1.13462141536024	    0.64818490314811	    0.42743591498564	    0.96933567654645	    0.37924066278137	    0.67247707891363	    0.73593407942717	    0.29568383888005	    0.81023541568821	    0.61023943865542	    0.56361096402909	    0.65154899890125	    1.27200743182801	    0.45637954496181	    0.84351658703845	    0.50684993551460	    0.59988658692449	    0.54160769605872	    1.00688547318661	   -0.05766712386213	    0.91099819614138	    0.34483217492991	    0.61757564250364	    0.71747795788205	    0.80415943131161	    0.54889431451786	    0.76224429263294	    0.70098554064397	    0.55157330955466	    0.62436020903707	    0.96479869772539	    0.26969575807083	    0.55317080642416	    0.22907560803297	    0.36354536511088	    0.49103259126545	    0.02736893210366	    0.35956595164398	    0.57167677918933	    1.37702061187228	    0.37549216116737	    0.58026826743964	    0.38071934696032	    0.33075041621604	    0.57533458928727	    0.99856597254862	    0.52411263143317	    0.62695291909886	    0.48842503170732	    0.34097362019418	    0.57224376855499	    0.65551356291326	    0.25403173133745	    0.65228404604795	    0.60677657069038	    0.31746352756011
119	   2.360	    0.70619284963448	    0.04156176509552	    0.37678760845402	    1.11154743324501	    0.28690002831927	    0.51629487110859	    0.46335630159611	    1.44007572004473	    0.51275105198160	    0.41530831360895	    0.03344020827121	    0.42709465751997	    0.42845435222575	    1.46322960638726	    0.36591476656657	    0.91280626106593	    0.11396210647246	    0.65316286244755	    0.48592965188067	    0.32585669649798	    0.29319561969874	    0.79763675286615	    0.44258918696586	    0.67110963118770	    0.58682377512470	    0.08994805263017	    0.39033008614122	    0.36899849345829	    1.11527448037882	    0.09990566190996	    1.00577285154752	    0.16219910674646	    0.65693584685393	    1.00540084417658	    0.25505230291056	    0.58852885918083	    0.47235862314221	    1.43193921471598	    0.22069162730004	    0.66896180063455	    0.73181271176345	    0.61990112689713	    0.56758735841296	    1.13477392376180	    0.64817111995086	    0.42780507141567	    0.96931578189656	    0.37925349788109	    0.67277667836874	    0.73589510187258	    0.29580829053903	    0.81088817274588	    0.61064353348910	    0.56343860178174	    0.65159110483454	    1.27213450955356	    0.45635658976509	    0.84446443919463	    0.50724842417808	    0.59966989878467	    0.54212281236001	    1.00656160512706	   -0.05759900321563	    0.91211480465779	    0.34534395229577	    0.61713155556867	    0.71802314509538	    0.80443661992574	    0.54886084177245	    0.76287896751778	    0.70133750722103	    0.55142906319888	    0.62473621470483	    0.96479027120960	    0.26974904001068	    0.55325196376851	    0.22909147991272	    0.36363956418585	    0.49104309555966	    0.02738124677177	    0.35957376652839	    0.57168560364505	    1.37704406494373	    0.37536554230935	    0.58037793936962	    0.38076560069572	    0.33087410855892	    0.57564837554409	    0.99868657406524	    0.52410893664122	    0.62704946096669	    0.48842142578863	    0.34110469462914	    0.57249996529894	    0.65553187608781	    0.25413597867880	    0.65248950269602	    0.60674934902751	    0.31760845257657
120	   2.380	    0.70620050726483	    0.04153662320952	    0.37677426814021	    1.11205365938626	    0.29090935683081	    0.51749563082833	    0.46323334455245	    1.44008647573682	    0.51252401174823	    0.41531789196188	    0.03345470699418	    0.42709505760569	    0.42842898671194	    1.46314384619840	    0.36565313804370	    0.91555486752954	    0.11387241174923	    0.65206600640462	    0.48604646964403	    0.32590648731984	    0.29332747479648	    0.79858482556139	    0.44276835891654	    0.67081717395188	    0.58683642495595	    0.08994089588599	    0.39034050181893	    0.36944580789270	    1.11498155494786	    0.09982458660599	    1.00766473922160	    0.16374795493200	    0.65680180033859	    1.00620626314838	    0.25676205614271	    0.58858138028223	    0.47244873394967	    1.43181852833670	    0.22048057241633	    0.66957965598573	    0.73198628303889	    0.61988762974001	    0.56763798764443	    1.13495185484956	    0.64817903209624	    0.42817611370503	    0.96928837139244	    0.37927540397740	    0.67306936843688	    0.73585312636068	    0.29593942349481	    0.81151404614875	    0.61103569652635	    0.56330902217530	    0.65165173828547	    1.27227876489119	    0.45634387371434	    0.84537537167139	    0.50763687287466	    0.59950002931445	    0.54266671398193	    1.00622636593345	   -0.05752481347886	    0.91322248411259	    0.34584985570928	    0.61671632537929	    0.71854768355782	    0.80469709165601	    0.54887164530278	    0.76349223489655	    0.70167338622159	    0.55132988648310	    0.62511707909600	    0.96477941336764	    0.26981981762185	    0.55332557573776	    0.22910996408019	    0.36373268906615	    0.49105326652466	    0.02739250451321	    0.35958099779664	    0.57170601265997	    1.37706832286658	    0.37524692206828	    0.58046924354363	    0.38081442417575	    0.33099767940067	    0.57595353114504	    0.99879835174651	    0.52412564817506	    0.62709602943850	    0.48840311927851	    0.34125428594934	    0.57274498227704	    0.65555011431336	    0.25424800134057	    0.65267739331912	    0.60672126197268	    0.31775391009661
121	   2.400	    0.70621172905355	    0.04151415495247	    0.37676183010640	    1.11264100636020	    0.29477020455206	    0.51877901337811	    0.46313301062272	    1.44010402170760	    0.51230504176772	    0.41532729791022	    0.03346804408683	    0.42709508258206	    0.42841816217517	    1.46305299093465	    0.36539669816926	    0.91822253640567	    0.11381062159140	    0.65094214357631	    0.48615843652695	    0.32595527185544	    0.29346233370111	    0.79946709612732	    0.44290446997543	    0.67053180577972	    0.58684858847907	    0.08993132079760	    0.39035442260532	    0.36990820588793	    1.11467059567116	    0.09975899078348	    1.00952110662978	    0.16526029201387	    0.65672647733580	    1.00704785144038	    0.25841777949738	    0.58866739048418	    0.47254623843572	    1.43168373974045	    0.22027966130277	    0.67014299593532	    0.73213258740777	    0.61989761790892	    0.56773095868696	    1.13515084020984	    0.64821066037210	    0.42854342353623	    0.96925091773226	    0.37930210063738	    0.67335787282928	    0.73581065109487	    0.29608818602090	    0.81210139528934	    0.61141144120804	    0.56322679663199	    0.65173124453761	    1.27243268229167	    0.45634021905833	    0.84623457496158	    0.50800957852385	    0.59938069604391	    0.54322868444498	    1.00589259850898	   -0.05744583753136	    0.91430679208484	    0.34634511695233	    0.61633150310893	    0.71904025136717	    0.80493873612534	    0.54893208794917	    0.76407353911617	    0.70198910617836	    0.55128148360754	    0.62550106500935	    0.96476521096294	    0.26991132729194	    0.55339702303702	    0.22912990726269	    0.36382969661110	    0.49106362626487	    0.02740283214146	    0.35958776323082	    0.57173971934012	    1.37708911749106	    0.37513758187163	    0.58055102888604	    0.38086472617178	    0.33112820035746	    0.57624032868507	    0.99889786165906	    0.52416451854197	    0.62709541387405	    0.48836761222257	    0.34143343434030	    0.57298886969622	    0.65556552414059	    0.25436917912879	    0.65285390620345	    0.60669357572945	    0.31791024969269
